<svg width="20" height="17" viewBox="0 0 20 17" fill="none" xmlns="http://www.w3.org/2000/svg">
<path d="M6.29 16.2534C13.837 16.2534 17.965 10.0004 17.965 4.5784C17.965 4.4004 17.965 4.2234 17.953 4.0484C18.7562 3.46693 19.4493 2.74701 20 1.9224C19.2511 2.2544 18.4566 2.47216 17.643 2.5684C18.4996 2.05546 19.1408 1.24875 19.447 0.298398C18.6417 0.776285 17.7607 1.11313 16.842 1.2944C16.2234 0.636163 15.405 0.200233 14.5136 0.0541031C13.6222 -0.0920265 12.7075 0.0597974 11.9111 0.486067C11.1147 0.912337 10.4811 1.58927 10.1083 2.41206C9.7355 3.23485 9.64437 4.15758 9.849 5.0374C8.21759 4.95564 6.6216 4.53172 5.16465 3.79317C3.70769 3.05461 2.42233 2.01792 1.392 0.750398C0.867318 1.6536 0.706589 2.72282 0.942536 3.74036C1.17848 4.75791 1.79337 5.64728 2.662 6.2274C2.00926 6.2085 1.37063 6.0329 0.8 5.7154V5.7674C0.800389 6.71469 1.1284 7.6327 1.7284 8.36576C2.3284 9.09881 3.16347 9.60179 4.092 9.7894C3.48781 9.95411 2.85389 9.97806 2.239 9.8594C2.50116 10.6749 3.01168 11.388 3.69913 11.899C4.38658 12.41 5.21657 12.6934 6.073 12.7094C5.22212 13.378 4.24779 13.8722 3.20573 14.1639C2.16367 14.4556 1.07432 14.539 0 14.4094C1.8766 15.6137 4.06019 16.2525 6.29 16.2494" fill="#9CA3AF"/>
</svg>
