<svg width="20" height="20" viewBox="0 0 20 20" fill="none" xmlns="http://www.w3.org/2000/svg">
<path fill-rule="evenodd" clip-rule="evenodd" d="M10.315 0C12.745 0 13.099 0.0129999 14.123 0.0599999C15.187 0.109 15.914 0.278 16.55 0.525C17.2175 0.775874 17.8222 1.16936 18.322 1.678C18.8306 2.17777 19.2241 2.7825 19.475 3.45C19.722 4.086 19.891 4.813 19.94 5.877C19.988 6.944 20 7.284 20 10V10.08C20 12.723 19.988 13.067 19.94 14.123C19.891 15.187 19.722 15.914 19.475 16.55C19.2241 17.2175 18.8306 17.8222 18.322 18.322C17.8222 18.8306 17.2175 19.2241 16.55 19.475C15.914 19.722 15.187 19.891 14.123 19.94C13.056 19.988 12.716 20 10 20H9.92C7.277 20 6.933 19.988 5.877 19.94C4.813 19.891 4.086 19.722 3.45 19.475C2.7825 19.2241 2.17777 18.8306 1.678 18.322C1.16936 17.8222 0.775874 17.2175 0.525 16.55C0.278 15.914 0.109 15.187 0.0599999 14.123C0.0129999 13.099 0 12.744 0 10.315V9.685C0 7.255 0.0129999 6.901 0.0599999 5.877C0.109 4.813 0.278 4.086 0.525 3.45C0.775874 2.7825 1.16936 2.17777 1.678 1.678C2.17777 1.16936 2.7825 0.775874 3.45 0.525C4.086 0.278 4.813 0.109 5.877 0.0599999C6.901 0.0129999 7.256 0 9.685 0H10.315ZM10.234 1.802H9.766C7.31 1.802 6.982 1.813 5.959 1.86C4.984 1.905 4.455 2.067 4.102 2.204C3.635 2.386 3.302 2.602 2.952 2.952C2.602 3.302 2.386 3.635 2.204 4.102C2.067 4.455 1.904 4.984 1.86 5.959C1.813 6.982 1.802 7.31 1.802 9.766V10.234C1.802 12.69 1.813 13.018 1.86 14.041C1.905 15.016 2.067 15.545 2.204 15.898C2.386 16.364 2.603 16.698 2.952 17.048C3.302 17.398 3.635 17.614 4.102 17.796C4.455 17.933 4.984 18.096 5.959 18.14C7.013 18.188 7.329 18.198 10 18.198H10.08C12.677 18.198 12.997 18.188 14.04 18.14C15.016 18.095 15.545 17.933 15.898 17.796C16.364 17.614 16.698 17.398 17.048 17.048C17.398 16.698 17.614 16.365 17.796 15.898C17.933 15.545 18.096 15.016 18.14 14.041C18.188 12.986 18.198 12.671 18.198 10V9.92C18.198 7.323 18.188 7.003 18.14 5.96C18.095 4.984 17.933 4.455 17.796 4.102C17.6358 3.66757 17.3802 3.2746 17.048 2.952C16.7254 2.61986 16.3324 2.36426 15.898 2.204C15.545 2.067 15.016 1.904 14.041 1.86C13.018 1.813 12.69 1.802 10.234 1.802ZM10 4.865C10.6743 4.865 11.3421 4.99782 11.9651 5.25588C12.5881 5.51394 13.1542 5.89218 13.631 6.36901C14.1078 6.84584 14.4861 7.41191 14.7441 8.03492C15.0022 8.65793 15.135 9.32566 15.135 10C15.135 10.6743 15.0022 11.3421 14.7441 11.9651C14.4861 12.5881 14.1078 13.1542 13.631 13.631C13.1542 14.1078 12.5881 14.4861 11.9651 14.7441C11.3421 15.0022 10.6743 15.135 10 15.135C8.63811 15.135 7.33201 14.594 6.36901 13.631C5.40601 12.668 4.865 11.3619 4.865 10C4.865 8.63811 5.40601 7.33201 6.36901 6.36901C7.33201 5.40601 8.63811 4.865 10 4.865ZM10 6.667C9.11603 6.667 8.26827 7.01815 7.64321 7.64321C7.01815 8.26827 6.667 9.11603 6.667 10C6.667 10.884 7.01815 11.7317 7.64321 12.3568C8.26827 12.9818 9.11603 13.333 10 13.333C10.884 13.333 11.7317 12.9818 12.3568 12.3568C12.9818 11.7317 13.333 10.884 13.333 10C13.333 9.11603 12.9818 8.26827 12.3568 7.64321C11.7317 7.01815 10.884 6.667 10 6.667ZM15.338 3.462C15.6563 3.462 15.9615 3.58843 16.1865 3.81347C16.4116 4.03852 16.538 4.34374 16.538 4.662C16.538 4.98026 16.4116 5.28548 16.1865 5.51053C15.9615 5.73557 15.6563 5.862 15.338 5.862C15.0197 5.862 14.7145 5.73557 14.4895 5.51053C14.2644 5.28548 14.138 4.98026 14.138 4.662C14.138 4.34374 14.2644 4.03852 14.4895 3.81347C14.7145 3.58843 15.0197 3.462 15.338 3.462Z" fill="#9CA3AF"/>
</svg>
