<svg width="202" height="214" xmlns="http://www.w3.org/2000/svg"><defs><linearGradient x1="13.13%" y1="-40.934%" x2="87.817%" y2="122.503%" id="a"><stop stop-color="#08F" offset="0%"/><stop stop-color="#00C7FA" offset="100%"/></linearGradient><linearGradient x1="50%" y1="96.08%" x2="50%" y2="0%" id="b"><stop stop-color="#55FBDC" stop-opacity=".32" offset="0%"/><stop stop-color="#55FBDC" offset="100%"/></linearGradient><linearGradient x1="50%" y1="0%" x2="50%" y2="100%" id="c"><stop stop-color="#08F" offset="0%"/><stop stop-color="#00C7FA" offset="100%"/></linearGradient></defs><g fill="none" fill-rule="evenodd"><path d="M101.017 210.476c-7.179.388-14.483 1.131-21.184 2.302-2.048.29-3.998.685-5.833 1.098 19.628-9.175 40.377-15.927 61.664-19.922 5.684-.933 11.333-1.998 17.035-2.545l4.26-.497 2.127-.246.358-.025c1.472.17 3.724.444 6.612.721l3.26.325c1.159.116 2.386.21 3.68.42l8.45 1.194c.757.105 1.526.212 2.306.322.78.121 1.572.288 2.373.432l4.925.92c1.672.312 3.385.63 5.13.954l4.497 1.054c-34.142-2.342-68.036 2.418-99.66 13.493z" fill="url(#a)"/><path d="M110.121 177.781a264.38 264.38 0 0 0-13.233-52.019 264.084 264.084 0 0 0-23.555-48.218C54.434 47.103 29.333 20.569 0 0" fill="url(#b)"/><path d="M178.843 79.589c1.915 1.664 4.049 3.385 6.186 5.367 5.337 4.837 11.089 10.625 16.742 16.91C175.499 80.098 144.703 63.601 111 5" fill="url(#c)"/></g></svg>