<?xml version="1.0" standalone="no"?>
<!DOCTYPE svg PUBLIC "-//W3C//DTD SVG 20010904//EN"
 "http://www.w3.org/TR/2001/REC-SVG-20010904/DTD/svg10.dtd">
<svg version="1.0" xmlns="http://www.w3.org/2000/svg"
 width="820.000000pt" height="1280.000000pt" viewBox="0 0 820.000000 1280.000000"
 preserveAspectRatio="xMidYMid meet">
<metadata>
Created by potrace 1.15, written by Peter Selinger 2001-2017
</metadata>
<g transform="translate(0.000000,1280.000000) scale(0.100000,-0.100000)"
fill="#000000" stroke="none">
<path d="M7430 12794 c-14 -1 -135 -8 -270 -14 -135 -6 -313 -15 -396 -21 -84
-5 -309 -14 -500 -19 -415 -12 -646 -31 -944 -80 -1553 -252 -2952 -1073
-3945 -2315 -443 -555 -804 -1215 -1035 -1892 -164 -479 -264 -952 -317 -1494
-25 -260 -25 -858 0 -1118 81 -832 286 -1556 643 -2271 254 -508 556 -954 941
-1390 131 -148 435 -448 583 -576 556 -479 1156 -842 1830 -1109 182 -72 464
-167 607 -205 185 -50 227 -60 358 -89 414 -89 733 -126 1220 -141 312 -9 568
-21 905 -41 275 -16 775 -22 875 -11 159 20 215 48 215 111 0 71 -85 125 -345
221 -168 62 -290 125 -445 230 -886 603 -1839 1935 -2362 3305 -359 939 -531
1912 -489 2768 34 690 146 1282 368 1946 467 1399 1388 2800 2318 3524 215
167 394 269 620 352 237 87 335 149 335 211 0 97 -116 125 -510 123 -129 -1
-246 -3 -260 -5z"/>
</g>
</svg>
