<svg width="147" height="22" viewBox="0 0 147 22" fill="none" xmlns="http://www.w3.org/2000/svg">
<path d="M20.7778 0.766369C19.8292 0.764956 18.8896 0.923136 18.0132 1.2318C17.1368 1.54047 16.3408 1.99352 15.6711 2.56488L7.15827 9.80332L5.45605 8.35564C5.22588 8.16679 5.04226 7.94083 4.91591 7.69096C4.78955 7.4411 4.723 7.17232 4.72013 6.90034C4.71726 6.62836 4.77814 6.35861 4.8992 6.10686C5.02026 5.8551 5.19909 5.62638 5.42523 5.43405C5.65138 5.24172 5.92031 5.08964 6.21633 4.98668C6.51235 4.88372 6.82952 4.83195 7.14933 4.83439C7.46913 4.83683 7.78516 4.89343 8.07896 5.00089C8.37276 5.10835 8.63845 5.26451 8.8605 5.46026L12.2666 2.56488C10.9065 1.43658 9.07842 0.809491 7.17845 0.81948C5.27847 0.829469 3.45964 1.47573 2.11602 2.61825C0.772395 3.76077 0.0122046 5.30752 0.000145675 6.92338C-0.0119133 8.53925 0.725132 10.0941 2.05159 11.251L7.15827 15.5941L23.8909 1.36349C22.919 0.968514 21.855 0.764443 20.7778 0.766369Z" fill="url(#paint0_linear_4008_2400)"/>
<path d="M27.2954 4.26031L20.7777 9.80477L19.0755 8.35565L15.6711 11.251L17.3733 12.6987L10.5644 18.4895L13.9688 21.3863L25.8844 11.2525C26.9405 10.3539 27.6433 9.19916 27.8959 7.947C28.1486 6.69485 27.9388 5.40688 27.2954 4.26031Z" fill="url(#paint1_linear_4008_2400)"/>
<path d="M40 4.35771H44.7078V9.3557H51.2524V4.35771H55.9637V18.0198H51.2524V12.6758H44.7078V18.0198H40V4.35771Z" fill="#F5F5FF"/>
<path d="M70.6718 17.3251C70.4091 17.441 70.1389 17.5464 69.8622 17.6409C69.4869 17.7726 69.0995 17.8828 68.7031 17.9704C68.2142 18.0828 67.7177 18.1744 67.2158 18.245C66.6351 18.3216 66.0468 18.3593 65.4575 18.3576C63.1536 18.3576 61.3893 17.91 60.1648 17.0147C58.9403 16.1195 58.3281 14.8663 58.3281 13.2553C58.3301 12.6113 58.4649 11.9718 58.7275 11.3604C58.9878 10.7554 59.3998 10.1956 59.9401 9.71272C60.5073 9.21352 61.2049 8.81208 61.9873 8.53462C62.8938 8.22159 63.8794 8.06775 64.8726 8.08425C65.6954 8.08008 66.512 8.19465 67.28 8.42203C68.0286 8.64417 68.7018 8.99443 69.2487 9.44634C69.8383 9.94396 70.2876 10.5302 70.5684 11.1682C70.9053 11.9507 71.0669 12.7716 71.0463 13.5958V14.2439H62.5865C62.6085 14.4209 62.6662 14.5941 62.7577 14.7574C62.8738 14.9528 63.0471 15.1248 63.2641 15.2599C63.5479 15.4343 63.8741 15.5631 64.2235 15.6389C64.7037 15.743 65.2014 15.7912 65.7001 15.7817C66.4063 15.7882 67.1098 15.7123 67.7865 15.5565C68.3009 15.444 68.7965 15.2855 69.263 15.0842L70.6718 17.3251ZM67.0553 12.1815C67.0526 12.0064 67.0079 11.8333 66.9234 11.6707C66.8289 11.4875 66.6883 11.3204 66.5097 11.1792C66.3111 11.0213 66.0766 10.8928 65.8177 10.8002C65.5041 10.6918 65.1628 10.6392 64.8191 10.6464C64.4804 10.6418 64.1444 10.6942 63.8348 10.8002C63.5738 10.89 63.3386 11.0188 63.1429 11.1792C62.9718 11.3223 62.8375 11.4891 62.747 11.6707C62.6614 11.8331 62.6155 12.0063 62.6114 12.1815H67.0553Z" fill="#F5F5FF"/>
<path d="M72.4017 13.269L79.5597 5.11565H84.0036V13.0026H85.6798V15.768H84.0036V18.0198H79.8771V15.768H72.3874L72.4017 13.269ZM79.8914 12.9944V9.14975L76.4889 12.9944H79.8914Z" fill="#F5F5FF"/>
<path d="M88.0445 8.39455H92.3814L92.5419 9.60286C92.8972 9.21719 93.3437 8.88647 93.8579 8.62797C94.4272 8.35236 95.0903 8.21373 95.7625 8.22978C96.0688 8.22754 96.3751 8.2413 96.679 8.27097C96.9099 8.29376 97.1371 8.33518 97.3567 8.39455L96.7718 11.3439C96.3461 11.2615 95.9089 11.22 95.47 11.2203C93.5155 11.2203 92.5395 12.0442 92.5419 13.6919V18.0116H88.0445V8.39455Z" fill="#F5F5FF"/>
<path d="M99.992 11.0555H98.1553V8.39453H99.992V5.70879H104.486V8.39453H107.574V11.0555H104.486V14.458C104.486 15.2489 104.973 15.6444 105.948 15.6444C106.238 15.644 106.524 15.5953 106.786 15.5016C107.051 15.4093 107.305 15.3 107.546 15.1748L109.301 17.303C108.733 17.647 108.095 17.9169 107.414 18.1022C106.728 18.2941 106.004 18.3917 105.274 18.3905C104.408 18.4101 103.545 18.2981 102.735 18.061C102.097 17.8699 101.533 17.556 101.098 17.1493C100.675 16.7379 100.378 16.2582 100.231 15.746C100.058 15.1614 99.9745 14.5633 99.9813 13.9637L99.992 11.0555Z" fill="#F5F5FF"/>
<path d="M118.884 17.2152C118.824 17.2701 118.727 17.3553 118.592 17.4679C118.431 17.5976 118.249 17.7102 118.05 17.8029C117.801 17.9164 117.537 18.0085 117.262 18.0775C116.917 18.1657 116.555 18.2076 116.192 18.2011C115.69 18.2047 115.194 18.1251 114.736 17.9677C114.291 17.8161 113.892 17.5933 113.567 17.3141C113.221 17.0137 112.959 16.6624 112.796 16.2815C112.605 15.8446 112.512 15.3859 112.522 14.9249C112.504 14.3907 112.643 13.8603 112.928 13.3733C113.174 12.9666 113.528 12.6037 113.966 12.3078C114.365 12.0384 114.829 11.8321 115.332 11.7009C115.779 11.5794 116.249 11.5144 116.723 11.5087C117.194 11.4932 117.664 11.5492 118.107 11.6735C118.438 11.7833 118.692 11.8657 118.87 11.9206V8.89986H120.464V17.3608C120.464 17.5667 120.464 17.7837 120.482 18.0088H118.924L118.884 17.2152ZM118.884 13.0768C118.677 12.9645 118.457 12.8662 118.228 12.7829C117.796 12.6447 117.329 12.5819 116.862 12.5989C116.494 12.596 116.13 12.6521 115.792 12.7637C115.47 12.8717 115.179 13.0297 114.94 13.2278C114.687 13.4406 114.494 13.6911 114.373 13.9638C114.232 14.281 114.163 14.6145 114.169 14.9496C114.167 15.2371 114.215 15.5235 114.312 15.8009C114.395 16.0551 114.543 16.294 114.747 16.504C114.941 16.7061 115.198 16.8683 115.493 16.9763C115.828 17.0952 116.194 17.1534 116.563 17.1466C116.932 17.1552 117.299 17.0949 117.632 16.9708C117.908 16.8628 118.151 16.7112 118.346 16.5259C118.528 16.3512 118.667 16.1519 118.756 15.9383C118.838 15.7466 118.882 15.5467 118.888 15.3451L118.884 13.0768Z" fill="#F5F5FF"/>
<path d="M130.233 17.0916C130.1 17.2034 129.958 17.3088 129.808 17.4074C129.583 17.5521 129.337 17.6756 129.074 17.7754C128.731 17.9047 128.372 18.0077 128.004 18.083C127.549 18.1731 127.082 18.2165 126.613 18.2121C126.013 18.2171 125.417 18.1341 124.858 17.9676C124.343 17.8124 123.878 17.5746 123.492 17.2701C123.106 16.9609 122.807 16.5934 122.615 16.1909C122.401 15.7453 122.296 15.2734 122.304 14.7986C122.3 14.3533 122.401 13.9112 122.604 13.4942C122.793 13.1028 123.083 12.745 123.456 12.4424C123.826 12.1444 124.268 11.9055 124.758 11.7394C125.281 11.5627 125.846 11.4738 126.416 11.4785C127.05 11.4656 127.677 11.5742 128.243 11.7943C128.737 11.9909 129.165 12.2728 129.494 12.6181C129.824 12.9778 130.066 13.3807 130.208 13.8072C130.362 14.2617 130.439 14.7298 130.436 15.1995H123.92C123.928 15.4686 124.009 15.7334 124.159 15.9767C124.303 16.2099 124.505 16.419 124.754 16.5918C125.004 16.7668 125.293 16.9054 125.607 17.001C125.927 17.1024 126.27 17.1537 126.616 17.152C127.21 17.1685 127.799 17.0743 128.335 16.8774C128.697 16.7428 129.027 16.5627 129.313 16.3447L130.233 17.0916ZM128.806 14.2933C128.76 13.8241 128.508 13.3808 128.093 13.0356C127.875 12.8584 127.61 12.7202 127.315 12.6305C127.021 12.5408 126.704 12.5019 126.388 12.5165C126.038 12.5133 125.691 12.5647 125.368 12.6676C125.082 12.7621 124.821 12.8962 124.598 13.063C124.386 13.2259 124.217 13.419 124.102 13.6315C123.984 13.8409 123.918 14.0653 123.906 14.2933H128.806Z" fill="#F5F5FF"/>
<path d="M130.857 11.6707H132.683L135.254 16.6275L137.808 11.6707H139.527L136 18.0198H134.402L130.857 11.6707Z" fill="#F5F5FF"/>
<path d="M141.018 16.4243C141.326 16.6587 141.689 16.8451 142.088 16.9735C142.541 17.1135 143.026 17.1826 143.515 17.1767C143.974 17.1932 144.433 17.1293 144.856 16.99C145.016 16.941 145.153 16.8552 145.248 16.7442C145.344 16.6332 145.392 16.5023 145.387 16.3694C145.393 16.2384 145.354 16.1086 145.273 15.9931C145.177 15.8769 145.043 15.7821 144.884 15.7185C144.658 15.6232 144.419 15.5476 144.171 15.4933C143.868 15.4247 143.493 15.3505 143.044 15.2682C142.721 15.2134 142.404 15.14 142.095 15.0485C141.792 14.9624 141.509 14.8411 141.254 14.6887C141.006 14.5392 140.801 14.3523 140.651 14.1395C140.49 13.9016 140.41 13.636 140.419 13.3678C140.408 13.0788 140.503 12.7933 140.694 12.544C140.879 12.3086 141.13 12.1079 141.428 11.9563C141.747 11.794 142.097 11.6716 142.466 11.5938C142.856 11.5109 143.26 11.4693 143.664 11.4702C144.271 11.4612 144.874 11.5337 145.448 11.6844C145.932 11.8165 146.38 12.0177 146.767 12.2776L145.901 13.1234C145.625 12.9381 145.31 12.7904 144.97 12.6868C144.554 12.5624 144.111 12.5017 143.664 12.5083C143.242 12.4947 142.823 12.5607 142.441 12.7005C142.293 12.7595 142.171 12.8504 142.089 12.9621C142.008 13.0738 141.97 13.2015 141.981 13.3294C141.986 13.4674 142.047 13.6006 142.157 13.7098C142.267 13.819 142.419 13.8983 142.591 13.9363C143.112 14.0949 143.649 14.2208 144.196 14.3125C144.566 14.3792 144.931 14.4636 145.287 14.5652C145.606 14.6526 145.905 14.7767 146.175 14.9331C146.425 15.081 146.63 15.2682 146.778 15.4824C146.933 15.7295 147.009 16.0017 146.999 16.276C147.007 16.571 146.908 16.8619 146.714 17.1163C146.522 17.3594 146.263 17.5667 145.954 17.7232C145.617 17.8917 145.246 18.0152 144.856 18.0885C144.433 18.1717 143.998 18.2133 143.561 18.212C142.002 18.212 140.829 17.888 140.052 17.2426L141.018 16.4243Z" fill="#F5F5FF"/>
<defs>
<linearGradient id="paint0_linear_4008_2400" x1="0" y1="8.18022" x2="23.8909" y2="8.18022" gradientUnits="userSpaceOnUse">
<stop offset="0.295" stop-color="#782BF1"/>
<stop offset="1" stop-color="#9828BD"/>
</linearGradient>
<linearGradient id="paint1_linear_4008_2400" x1="10.5644" y1="12.8233" x2="28.0001" y2="12.8233" gradientUnits="userSpaceOnUse">
<stop offset="0.295" stop-color="#782BF1"/>
<stop offset="1" stop-color="#9828BD"/>
</linearGradient>
</defs>
</svg>
