<svg width="64" height="56" viewBox="0 0 64 56" fill="none" xmlns="http://www.w3.org/2000/svg">
<path d="M47.5507 4.69574e-05C45.3818 -0.00512726 43.2332 0.417357 41.2293 1.2431C39.2253 2.06885 37.4055 3.28149 35.8751 4.81101L16.3824 24.1817L12.5016 20.3197C11.9243 19.8289 11.4553 19.2246 11.124 18.5447C10.7927 17.8648 10.6063 17.124 10.5766 16.369C10.5468 15.614 10.6743 14.861 10.9511 14.1574C11.2278 13.4537 11.6479 12.8147 12.1848 12.2804C12.7217 11.7461 13.3638 11.3281 14.0709 11.0527C14.7779 10.7773 15.5346 10.6504 16.2933 10.68C17.052 10.7096 17.7963 10.8951 18.4795 11.2248C19.1627 11.5544 19.77 12.0212 20.2632 12.5957L28.0248 4.8717C24.9131 1.86277 20.7365 0.193264 16.3979 0.22403C12.0592 0.254796 7.90701 1.98336 4.83868 5.03611C1.77035 8.08886 0.0323939 12.2206 0.000448265 16.5382C-0.0314973 20.8558 1.64514 25.0126 4.66796 28.1099L16.3436 39.7346L54.5971 1.66623C52.4018 0.597099 49.9947 0.0279284 47.5507 4.69574e-05V4.69574e-05Z" fill="#FAFAFA"/>
<path d="M62.4061 9.40283L47.5721 24.2571L43.7033 20.3816L35.9657 28.1327L39.8345 32.0082L24.2654 47.6044L32.003 55.3554L59.1785 28.1437C61.5819 25.7358 63.1824 22.6417 63.7603 19.2862C64.3382 15.9307 63.8652 12.4783 62.4061 9.40283V9.40283Z" fill="#FAFAFA"/>
</svg>
