<svg xmlns="http://www.w3.org/2000/svg" xmlns:xlink="http://www.w3.org/1999/xlink" width="1453.517" height="530.438" viewBox="0 0 1453.517 530.438"><defs><linearGradient id="a" x1="1" y1="0.67" x2="0" y2="0.31" gradientUnits="objectBoundingBox"><stop offset="0" stop-color="#7336c4"/><stop offset="1" stop-color="#ca5bd2" stop-opacity="0.8"/></linearGradient><linearGradient id="b" x1="1.191" y1="0.339" x2="0" y2="0.605" gradientUnits="objectBoundingBox"><stop offset="0" stop-color="#7336c4"/><stop offset="1" stop-color="#8e5bd2"/></linearGradient><linearGradient id="c" x1="0.5" x2="0.5" y2="1" gradientUnits="objectBoundingBox"><stop offset="0" stop-color="#8e5bd2"/><stop offset="1" stop-color="#ca5bd2"/></linearGradient><linearGradient id="d" x1="1" y1="0.072" x2="0.038" y2="0.839" gradientUnits="objectBoundingBox"><stop offset="0" stop-color="#8e5bd2"/><stop offset="1" stop-color="#ca5bd2" stop-opacity="0"/></linearGradient><linearGradient id="e" x1="0.853" y1="0.286" x2="0.26" y2="0.822" gradientUnits="objectBoundingBox"><stop offset="0" stop-color="#f5f6f7" stop-opacity="0"/><stop offset="1" stop-color="#f5f6f7" stop-opacity="0"/></linearGradient></defs><g transform="translate(-138.239 -6.907)"><path d="M1416.83,523.85c.37-.12.74-.229,1.109-.348-.367.124-.738.237-1.109.347ZM1409.422,72.7c23.255-14.075,49.5,18.88,70.391,33.48.233.162.46.33.692.491,1.058.746,2.119,1.488,3.163,2.25q7.716,5.564,14.963,11.74c11.682,9.95-140.242,34.87,32.472,33.644s-79.025,51.69-72.188,65.045c6.822,13.364,109.5,1.092,113.746,15.736a228.946,228.946,0,0,1,7.93,42.9c.149,1.66.346,3.3.45,4.92l.235,4.825c.14,3.177.378,6.275.319,9.3l.014,5.033c-.014,1.672.06,3.34-.056,5l-.464,9.876a251.983,251.983,0,0,1-5.762,37.66c-.8,3.123-1.54,6.05-2.25,8.846-.323,1.408-.8,2.737-1.191,4.066l-1.2,3.907c-1.464,5.178-3.368,9.938-5.156,15.063-.421,1.27-.981,2.486-1.484,3.727l-1.545,3.718c-1.036,2.481-2.025,4.993-3.24,7.412l-3.5,7.344c-1.221,2.429-2.568,4.8-3.854,7.207l-1.938,3.57c-.679,1.182-1.416,2.341-2.128,3.52-1.443,2.346-2.874,4.72-4.344,7.046l-4.626,6.72c-.774,1.09-1.482,2.21-2.288,3.236l-2.35,3.052a235.056,235.056,0,0,1-31.82,33.962l-3.049,2.678c-.98.87-1.932,1.715-2.908,2.468l-5.4,4.347-2.44,1.962-2.347,1.723c-1.507,1.108-40.731-145.873-42.016-144.928-10.644,7.636,15.411,162.87,2.416,169.121l-4.906,2.306c-.828.374-1.638.795-2.486,1.133l-2.535,1.04-4.5,1.842c-1.5.6-2.96,1.253-4.471,1.752l-8.71,3.084c-2.889.94-5.772,1.756-8.593,2.62a228.265,228.265,0,0,1-32.44,6.935q-1.914.277-3.787.55c-1.247.208-2.5.264-3.73.4l-7.242.685c-.59.05-1.177.122-1.762.153l-1.749.077-3.439.15c-2.266.089-4.478.208-6.637.26-4.315-.049-8.408-.021-12.262-.14l-10.835-.645c-6.71-.748-12.455-1.292-17.068-2.19l-6.136-1.052c-1.768-.334-3.242-.726-4.442-1a21.32,21.32,0,0,1-3.687-1.027,15.394,15.394,0,0,1,3.469.422l4.312.73,5.99.776,3.587.48,1.938.262c.664.076,1.349.121,2.046.185l9.12.8c3.29.213,6.834.292,10.6.465,1.883.118,3.828.06,5.828.05l6.167-.047,1.595-.01,1.613-.085,3.285-.184,6.806-.384,7.088-.75q1.809-.194,3.656-.388c1.232-.12,2.461-.363,3.711-.542l7.63-1.187c2.582-.456,5.189-1.045,7.852-1.574q1.995-.411,4.026-.826l4.05-1.031q2.04-.52,4.113-1.05c1.378-.369,2.787-.667,4.164-1.124l3.28-1.005a235.474,235.474,0,0,1-131.613.311c-125.375-35.95-314.415-391.08-162.08-291.537s166.4-85.363,291.942-161.348Z" fill-rule="evenodd" fill="url(#a)"/><path d="M1340.16,56.189a13.786,13.786,0,0,1,.224,2.487,7.985,7.985,0,0,1-.464,2.52c-.037.106-.377-.034-.348-.136a12.537,12.537,0,0,0,.544-2.4,6.423,6.423,0,0,0-.2-2.412,6.717,6.717,0,0,0-1.984-2.878,7.7,7.7,0,0,1,.7,7.38,7.395,7.395,0,1,1-13.606-5.775,7.84,7.84,0,0,1,2.248-3.01,4.834,4.834,0,0,0-1.464,1.065,9.415,9.415,0,0,0-2.143,4.162,9.806,9.806,0,0,0,.414,4.92,6.191,6.191,0,0,0,1.293,2.21,15.385,15.385,0,0,0,1.939,1.718c.08.061-.062.324-.152.264a23.447,23.447,0,0,1-2.2-1.559,6.958,6.958,0,0,1-1.724-2.15,9.667,9.667,0,0,1-1.1-5.5,10.242,10.242,0,0,1,2.351-5.1,10,10,0,0,1,4.48-2.993,8.128,8.128,0,0,1,9.389,2.564,9.1,9.1,0,0,1,1.806,4.624Zm-10.86,11.5a7.617,7.617,0,0,1,2.05.73,3.794,3.794,0,0,0,2.3.342,5.012,5.012,0,0,0,1.789-1.07,3.539,3.539,0,0,1,1.735-.936c.22-.038.833,1.295.6,1.391a15.734,15.734,0,0,1-4.39,1.05,14.306,14.306,0,0,1-4.256-.716,3.781,3.781,0,0,1,.173-.79Zm.477,7.173a15.5,15.5,0,0,1-8.906-4.555,16.08,16.08,0,0,1-4.9-8.759,16.86,16.86,0,0,1,1.75-9.857,17.67,17.67,0,0,1,2.71-4.066,16.065,16.065,0,0,1,3.719-3.026,15.7,15.7,0,0,1,8.76-1.814,12.092,12.092,0,0,1,4.229,1.007,16.694,16.694,0,0,1,3.674,2.175,20.741,20.741,0,0,1,3.277,2.943,10.488,10.488,0,0,1,2.257,3.929,16.607,16.607,0,0,1-.1,9.214c-.027.083-.485-.053-.46-.132.637-2.154,1.425-4.555.947-6.883a14.081,14.081,0,0,0-3.2-5.864c-1.38-1.718-3.442-2.576-5.228-3.4a13.409,13.409,0,0,0-7.8-1.2,28.557,28.557,0,0,0-4.04.774,9.882,9.882,0,0,0-3.84,2.026,13.823,13.823,0,0,0-2.748,3.535,20.3,20.3,0,0,0-1.654,4.185,11.888,11.888,0,0,0-.254,4.535,22.228,22.228,0,0,0,1.057,4.388,18.158,18.158,0,0,0,1.88,4.194,10.379,10.379,0,0,0,3.3,3.377,15.4,15.4,0,0,0,17.428-1.326,10.5,10.5,0,0,0,2.42-3.182,18.006,18.006,0,0,1,2.059-3.282c.284-.318,1.162.317.9.69-.983,1.422-1.974,2.82-3.08,4.145a16.634,16.634,0,0,1-3.812,3.46,19.129,19.129,0,0,1-4.91,2.29,13.69,13.69,0,0,1-5.443.477Z" fill="#8e5bd2" fill-rule="evenodd"/><path d="M1260.82,43.365a119.652,119.652,0,0,0-6.31-24.25q-.77-2.064-1.576-4.115a259.34,259.34,0,0,1,34.151,76.882c.03.97.093,2.118.163,3.458.089,1.282.364,4.2.74,8.228l.144,1.563.077,1.676.165,3.627c.09,2.536.285,5.27.293,8.184a237.278,237.278,0,0,1-.948,23.778,249.361,249.361,0,0,0-26.9-99.03Z" fill-rule="evenodd" fill="url(#b)"/><path d="M1292.84,176.589c1.915,1.664,4.049,3.385,6.186,5.367a237.418,237.418,0,0,1,16.742,16.91A249.358,249.358,0,0,0,1225,151" fill-rule="evenodd" fill="url(#c)"/><path d="M172.758,0a23.7,23.7,0,0,1,23.479,22.291V216.151l-24.11-20.471-13.239-12.05-14.446-12.591,6.034,19.859H24.046c-12.627,0-22.876-9.592-22.876-22.3V22.336C1.17,10.285,11.437.027,24.091.027H172.7Zm-55.1,51.183h-.27l-1.819,1.8c18.67,5.4,27.7,13.843,27.7,13.843a97.971,97.971,0,0,0-33.72-10.24c-7.835-1.216-15.671-.576-22.291,0h-1.8c-4.233,0-13.239,1.8-25.308,6.62-4.206,1.828-6.62,3.026-6.62,3.026s9.024-9.024,28.91-13.843l-1.216-1.216S66.169,50.6,49.912,62.612c0,0-16.256,28.316-16.256,63.224,0,0,9.006,15.671,33.711,16.265,0,0,3.6-4.8,7.25-9.024-13.87-4.215-19.274-12.645-19.274-12.645a29.869,29.869,0,0,1,3.017,1.8h.54a.717.717,0,0,1,.54.27v.054a.689.689,0,0,0,.54.27c2.972,1.225,5.944,2.432,8.376,3.6a73.678,73.678,0,0,0,16.211,4.827,92.5,92.5,0,0,0,28.91,0c5.4-1.216,10.808-2.4,16.211-4.818a129.914,129.914,0,0,0,12.582-6.638s-5.4,8.43-19.859,12.645c2.972,4.2,7.16,9.006,7.16,9.006,24.713-.54,34.314-16.211,34.854-15.545,0-34.854-16.346-63.224-16.346-63.224-14.725-10.934-28.5-11.348-30.937-11.348l.5-.18Zm1.513,39.745c6.331,0,11.438,5.4,11.438,12.023,0,6.665-5.134,12.068-11.438,12.068s-11.438-5.4-11.438-12.014c.018-6.665,5.161-12.05,11.438-12.05Zm-40.916,0c6.3,0,11.4,5.4,11.4,12.023,0,6.665-5.134,12.068-11.438,12.068s-11.438-5.4-11.438-12.014c0-6.665,5.134-12.05,11.438-12.05Z" transform="translate(309.069 40.907)" fill="url(#d)"/><path d="M182.76,187.4c38.277,42.417,80.925-.472,145.566,8.2C370.472,157.65,353.4,53.633,307.58,79.578S231.962,3.819,189.816,41.768s-45.3,103.148-7.057,145.627Zm-11.941,10.8c-43.83-48.679-40.1-123.49,8.33-167.1S302.37-8.394,346.2,40.284c43.757,48.7,91.345,141.565,42.984,185.2-48.43,43.608-174.537,21.387-218.366-27.29Z" transform="translate(-2 6)" fill-rule="evenodd" fill="url(#e)"/></g></svg>